<?xml version="1.0" encoding="iso-8859-1"?>
<!-- Generator: Adobe Illustrator 19.0.0, SVG Export Plug-In . SVG Version: 6.00 Build 0)  -->
<svg version="1.1" id="Layer_1" xmlns="http://www.w3.org/2000/svg" xmlns:xlink="http://www.w3.org/1999/xlink" x="0px" y="0px"
	 viewBox="0 0 512 512" style="enable-background:new 0 0 512 512;" xml:space="preserve">
<path style="fill:#FFC843;" d="M503.963,290.004c0-6.471-5.295-11.766-11.766-11.766h-82.369c-6.471,0-11.766,5.295-11.766,11.766
	v108.23c0,6.471,5.295,11.766,11.766,11.766h82.368c6.471,0,11.766-5.295,11.766-11.766v-108.23H503.963z"/>
<path style="opacity:0.2;enable-background:new    ;" d="M409.828,278.238c-6.471,0-11.766,5.295-11.766,11.766v108.23
	c0,6.471,5.295,11.766,11.766,11.766h54.382V278.238H409.828z"/>
<path style="fill:#0055B8;" d="M503.963,102.922c0-6.471-5.295-11.766-11.766-11.766h-82.369c-6.471,0-11.766,5.295-11.766,11.766
	V211.15c0,6.471,5.295,11.768,11.766,11.768h82.368c6.471,0,11.766-5.297,11.766-11.768V102.922H503.963z"/>
<path style="opacity:0.2;enable-background:new    ;" d="M409.828,91.156c-6.471,0-11.766,5.295-11.766,11.766V211.15
	c0,6.471,5.295,11.768,11.766,11.768h54.382V91.156H409.828z"/>
<path style="fill:#0082CA;" d="M442.776,70.234c0-19.414-15.884-35.299-35.3-35.299H89.225c-19.415,0-35.3,15.885-35.3,35.299
	v371.533c0,19.414,15.885,35.297,35.3,35.297h318.251c19.416,0,35.3-15.883,35.3-35.297L442.776,70.234L442.776,70.234z"/>
<path style="fill:#FFFFFF;" d="M369.835,141.656c0-11.926-9.757-21.682-21.681-21.682H173.252c-11.925,0-21.681,9.757-21.681,21.682
	v40.532c0,11.924,9.757,21.68,21.681,21.68h174.901c11.925,0,21.681-9.757,21.681-21.68V141.656z"/>
<g>
	<path style="fill:#333E48;" d="M73.515,68.861c14.524,0,26.296,11.775,26.296,26.298s-11.772,26.296-26.296,26.296H34.333
		c-14.522,0-26.296-11.772-26.296-26.296S19.81,68.861,34.333,68.861H73.515z"/>
	<path style="fill:#333E48;" d="M73.515,176.09c14.524,0,26.296,11.775,26.296,26.298c0,14.521-11.772,26.294-26.296,26.294H34.333
		c-14.522,0-26.296-11.772-26.296-26.294c0-14.523,11.774-26.298,26.296-26.298H73.515z"/>
	<path style="fill:#333E48;" d="M73.515,283.317c14.524,0,26.296,11.772,26.296,26.296s-11.772,26.296-26.296,26.296H34.333
		c-14.522,0-26.296-11.772-26.296-26.296s11.774-26.296,26.296-26.296H73.515z"/>
	<path style="fill:#333E48;" d="M73.515,390.543c14.524,0,26.296,11.775,26.296,26.298c0,14.521-11.772,26.296-26.296,26.296H34.333
		c-14.522,0-26.296-11.775-26.296-26.296c0-14.523,11.774-26.298,26.296-26.298H73.515z"/>
</g>
<path style="opacity:0.2;enable-background:new    ;" d="M99.811,95.159c0,14.523-11.772,26.296-26.296,26.296H34.333
	c-14.522,0-26.296-11.772-26.296-26.296H99.811z"/>
<path style="opacity:0.2;enable-background:new    ;" d="M99.811,202.387c0,14.521-11.772,26.294-26.296,26.294H34.333
	c-14.522,0-26.296-11.772-26.296-26.294H99.811z"/>
<path style="opacity:0.2;enable-background:new    ;" d="M99.811,309.613c0,14.523-11.772,26.296-26.296,26.296H34.333
	c-14.522,0-26.296-11.772-26.296-26.296H99.811z"/>
<path style="opacity:0.2;enable-background:new    ;" d="M99.811,416.841c0,14.521-11.772,26.296-26.296,26.296H34.333
	c-14.522,0-26.296-11.775-26.296-26.296H99.811z"/>
<path style="fill:#1E252B;" d="M331.863,247.959H189.541c-4.439,0-8.037,3.597-8.037,8.037c0,4.44,3.598,8.037,8.037,8.037h142.322
	c4.439,0,8.037-3.597,8.037-8.037C339.9,251.556,336.302,247.959,331.863,247.959z M492.196,230.954
	c10.919,0,19.803-8.883,19.803-19.803V102.922c0-10.919-8.883-19.803-19.803-19.803h-41.385V70.234
	c0-23.896-19.441-43.336-43.337-43.336H89.225c-20.728,0-38.019,14.387-42.306,33.926H34.333C15.402,60.824,0,76.227,0,95.159
	c0,18.931,15.402,34.333,34.333,34.333h11.555v38.56H34.333C15.402,168.053,0,183.455,0,202.387c0,18.93,15.402,34.33,34.333,34.33
	h11.555v38.562H34.333C15.402,275.28,0,290.682,0,309.613s15.402,34.333,34.333,34.333h11.555v38.56H34.333
	C15.402,382.506,0,397.909,0,416.841c0,18.931,15.402,34.333,34.333,34.333h12.585c4.286,19.541,21.577,33.929,42.307,33.929
	h318.251c23.896,0,43.337-19.44,43.337-43.334v-23.73h41.385c10.919,0,19.803-8.883,19.803-19.803v-108.23
	c0-10.919-8.883-19.803-19.803-19.803h-41.385v-39.247h41.384V230.954z M450.812,99.193h41.385c2.022,0,3.729,1.708,3.729,3.729
	V211.15c0,2.022-1.708,3.729-3.729,3.729h-41.385V99.193z M34.333,113.418c-10.069,0-18.259-8.19-18.259-18.259
	s8.19-18.261,18.259-18.261h39.182c10.069,0,18.259,8.192,18.259,18.261s-8.191,18.259-18.259,18.259H34.333z M34.333,220.644
	c-10.069,0-18.259-8.19-18.259-18.257c0-10.069,8.19-18.261,18.259-18.261h39.182c10.069,0,18.259,8.192,18.259,18.261
	c0,10.068-8.191,18.257-18.259,18.257H34.333z M34.333,327.871c-10.069,0-18.259-8.19-18.259-18.259s8.19-18.259,18.259-18.259
	h39.182c10.069,0,18.259,8.19,18.259,18.259s-8.191,18.259-18.259,18.259H34.333z M34.333,435.1
	c-10.069,0-18.259-8.191-18.259-18.259c0-10.069,8.19-18.261,18.259-18.261h39.182c10.069,0,18.259,8.192,18.259,18.261
	c0,10.069-8.191,18.259-18.259,18.259L34.333,435.1L34.333,435.1z M434.739,441.767c0,15.031-12.23,27.26-27.263,27.26H89.225
	c-11.542,0-21.648-7.488-25.547-17.855h9.837c18.931,0,34.333-15.402,34.333-34.333c0-18.932-15.402-34.335-34.333-34.335H61.961
	v-38.56h11.554c18.931,0,34.333-15.402,34.333-34.333S92.446,275.28,73.515,275.28H61.961v-38.562h11.554
	c18.931,0,34.333-15.401,34.333-34.33c0-18.933-15.402-34.335-34.333-34.335H61.961v-38.56h11.554
	c18.931,0,34.333-15.402,34.333-34.333c0-18.932-15.402-34.335-34.333-34.335h-9.836c3.9-10.364,14.006-17.853,25.546-17.853
	h318.251c15.033,0,27.263,12.23,27.263,27.262L434.739,441.767L434.739,441.767z M492.196,286.275c2.022,0,3.729,1.708,3.729,3.729
	v108.23c0,2.022-1.708,3.729-3.729,3.729h-41.385V286.275H492.196z"/>
<g>
</g>
<g>
</g>
<g>
</g>
<g>
</g>
<g>
</g>
<g>
</g>
<g>
</g>
<g>
</g>
<g>
</g>
<g>
</g>
<g>
</g>
<g>
</g>
<g>
</g>
<g>
</g>
<g>
</g>
</svg>
