<?xml version="1.0" encoding="iso-8859-1"?>
<!-- Generator: Adobe Illustrator 19.0.0, SVG Export Plug-In . SVG Version: 6.00 Build 0)  -->
<svg version="1.1" id="Layer_1" xmlns="http://www.w3.org/2000/svg" xmlns:xlink="http://www.w3.org/1999/xlink" x="0px" y="0px"
	 viewBox="0 0 512 512" style="enable-background:new 0 0 512 512;" xml:space="preserve">
<path style="fill:#565656;" d="M104.136,147.85H8.678c-5.207,0-8.678-3.471-8.678-8.678c0-5.207,3.471-8.678,8.678-8.678h95.458
	c5.207,0,8.678,3.471,8.678,8.678C112.814,144.379,109.342,147.85,104.136,147.85"/>
<path style="fill:#C3C7CB;" d="M173.559,173.884h-43.39c-14.753,0-26.034-11.281-26.034-26.034v-17.356
	c0-14.753,11.281-26.034,26.034-26.034h43.39V173.884z"/>
<path style="fill:#F4BA48;" d="M173.559,173.884c0,14.753,11.281,27.77,26.034,30.373l86.78,13.017
	c49.464,12.149,129.302,11.281,177.898-0.868c27.77-6.942,47.729-31.241,47.729-59.878v-34.712
	c0-28.637-19.092-52.936-46.861-59.878c-46.861-11.281-116.285-13.885-164.014-4.339c-13.885,2.603-27.77,5.207-42.522,7.81
	l-59.01,8.678c-14.753,2.603-26.034,14.753-26.034,30.373V173.884z"/>
<g>
	<path style="fill:#565656;" d="M242.983,68.013l-43.39,6.942c-14.753,2.603-26.034,14.753-26.034,30.373v69.424
		c0,14.753,11.281,27.77,26.034,30.373l43.39,6.942V68.013z"/>
	<path style="fill:#565656;" d="M451.254,113.138h-52.068c-5.207,0-8.678-3.471-8.678-8.678c0-5.207,3.471-8.678,8.678-8.678h52.068
		c5.207,0,8.678,3.471,8.678,8.678C459.932,109.667,456.461,113.138,451.254,113.138"/>
	<path style="fill:#565656;" d="M451.254,147.85h-52.068c-5.207,0-8.678-3.471-8.678-8.678c0-5.207,3.471-8.678,8.678-8.678h52.068
		c5.207,0,8.678,3.471,8.678,8.678C459.932,144.379,456.461,147.85,451.254,147.85"/>
</g>
<g>
	<path style="fill:#C3C7CB;" d="M338.441,416.867l52.068-52.068h78.102l17.356,52.068H338.441z"/>
	<path style="fill:#C3C7CB;" d="M348.854,225.084l15.62,70.292h26.034v-69.424C376.624,225.952,362.739,225.952,348.854,225.084"/>
</g>
<g>
	<path style="fill:#565656;" d="M468.61,364.799v-69.424l-5.207-78.969c-20.827,5.207-45.993,7.81-72.895,8.678v138.847h78.102
		V364.799z"/>
	<path style="fill:#565656;" d="M477.288,460.257H347.119c-5.207,0-8.678-3.471-8.678-8.678v-34.712h147.525v34.712
		C485.966,456.785,482.495,460.257,477.288,460.257"/>
</g>
<g>
</g>
<g>
</g>
<g>
</g>
<g>
</g>
<g>
</g>
<g>
</g>
<g>
</g>
<g>
</g>
<g>
</g>
<g>
</g>
<g>
</g>
<g>
</g>
<g>
</g>
<g>
</g>
<g>
</g>
</svg>
