<svg viewBox="0 -85 512 512" xmlns="http://www.w3.org/2000/svg"><path d="m488.792969 14.121094h-465.585938c-12.816406 0-23.207031 10.390625-23.207031 23.207031v235.832031c0 21.078125 17.089844 38.167969 38.167969 38.167969h195.71875c1.070312 11.273437 10.558593 20.09375 22.113281 20.09375s21.042969-8.820313 22.113281-20.09375h195.71875c21.078125 0 38.167969-17.089844 38.167969-38.167969v-235.832031c0-12.816406-10.390625-23.207031-23.207031-23.207031zm0 0" fill="#58b78c"/><path d="m23.207031 14.121094c-12.816406 0-23.207031 10.390625-23.207031 23.207031v235.832031c0 21.078125 17.089844 38.167969 38.167969 38.167969h195.71875c1.070312 11.273437 10.558593 20.09375 22.113281 20.09375v-317.300781zm0 0" fill="#46926f"/><path d="m256 283.035156h-208.914062c-11.503907 0-20.828126-9.324218-20.828126-20.828125v-241.382812c0-11.5 9.324219-20.824219 20.828126-20.824219h208.914062zm0 0" fill="#d9d7d8"/><path d="m167.816406 65.695312h-101.421875c-4.140625 0-7.5-3.355468-7.5-7.5 0-4.140624 3.359375-7.5 7.5-7.5h101.421875c4.144532 0 7.5 3.359376 7.5 7.5 0 4.144532-3.355468 7.5-7.5 7.5zm0 0" fill="#bab8b9"/><path d="m167.816406 121.242188h-101.421875c-4.140625 0-7.5-3.355469-7.5-7.5 0-4.140626 3.359375-7.5 7.5-7.5h101.421875c4.144532 0 7.5 3.359374 7.5 7.5 0 4.144531-3.355468 7.5-7.5 7.5zm0 0" fill="#bab8b9"/><path d="m167.816406 176.789062h-101.421875c-4.140625 0-7.5-3.355468-7.5-7.5 0-4.140624 3.359375-7.5 7.5-7.5h101.421875c4.144532 0 7.5 3.359376 7.5 7.5 0 4.144532-3.355468 7.5-7.5 7.5zm0 0" fill="#bab8b9"/><path d="m167.816406 232.335938h-101.421875c-4.140625 0-7.5-3.355469-7.5-7.5 0-4.140626 3.359375-7.5 7.5-7.5h101.421875c4.144532 0 7.5 3.359374 7.5 7.5 0 4.144531-3.355468 7.5-7.5 7.5zm0 0" fill="#bab8b9"/><path d="m464.914062 283.035156h-208.914062v-283.035156h208.914062c11.503907 0 20.828126 9.324219 20.828126 20.824219v241.382812c0 11.503907-9.324219 20.828125-20.828126 20.828125zm0 0" fill="#efedee"/><path d="m219.445312 341.679688-29.316406-20.214844-29.3125 20.214844v-341.679688h58.628906zm0 0" fill="#fd6f71"/><path d="m181.015625 0h-20.199219v341.679688l20.199219-13.929688zm0 0" fill="#e36465"/><g fill="#d9d7d8"><path d="m445.605469 65.695312h-149.46875c-4.144531 0-7.5-3.355468-7.5-7.5 0-4.140624 3.355469-7.5 7.5-7.5h149.46875c4.140625 0 7.5 3.359376 7.5 7.5 0 4.144532-3.359375 7.5-7.5 7.5zm0 0"/><path d="m445.605469 121.242188h-149.46875c-4.144531 0-7.5-3.355469-7.5-7.5 0-4.140626 3.355469-7.5 7.5-7.5h149.46875c4.140625 0 7.5 3.359374 7.5 7.5 0 4.144531-3.359375 7.5-7.5 7.5zm0 0"/><path d="m445.605469 176.789062h-149.46875c-4.144531 0-7.5-3.355468-7.5-7.5 0-4.140624 3.355469-7.5 7.5-7.5h149.46875c4.140625 0 7.5 3.359376 7.5 7.5 0 4.144532-3.359375 7.5-7.5 7.5zm0 0"/><path d="m445.605469 232.335938h-149.46875c-4.144531 0-7.5-3.355469-7.5-7.5 0-4.140626 3.355469-7.5 7.5-7.5h149.46875c4.140625 0 7.5 3.359374 7.5 7.5 0 4.144531-3.359375 7.5-7.5 7.5zm0 0"/></g></svg>