<?xml version="1.0" encoding="iso-8859-1"?>
<!-- Generator: Adobe Illustrator 21.0.0, SVG Export Plug-In . SVG Version: 6.00 Build 0)  -->
<svg version="1.1" id="Capa_1" xmlns="http://www.w3.org/2000/svg" xmlns:xlink="http://www.w3.org/1999/xlink" x="0px" y="0px"
	 viewBox="0 0 511.999 511.999" style="enable-background:new 0 0 511.999 511.999;" xml:space="preserve">
<path style="fill:#64CA6E;" d="M66.858,345.399c-5.711-5.712-14.973-5.712-20.685,0L12.832,378.74
	c-17.108,17.108-17.108,44.946,0,62.055l58.372,58.372c8.555,8.554,19.791,12.832,31.028,12.832s22.474-4.277,31.027-12.832
	l33.341-33.341c5.712-5.712,5.712-14.973,0-20.685L66.858,345.399z"/>
<path style="fill:#EDEEF0;" d="M382.707,195.786l-66.494-66.494c-5.711-5.712-14.973-5.712-20.685,0L129.291,295.528
	c-5.712,5.712-5.712,14.973,0,20.685l66.494,66.494c2.856,2.856,6.6,4.285,10.342,4.285c3.743,0,7.487-1.428,10.342-4.285
	L382.706,216.47C388.42,210.759,388.42,201.498,382.707,195.786z"/>
<path style="fill:#D8D9DD;" d="M295.527,129.292l-83.118,83.118l87.179,87.179l83.118-83.118c5.712-5.712,5.712-14.973,0-20.685
	l-66.494-66.494C310.501,123.579,301.239,123.579,295.527,129.292z"/>
<path style="fill:#47A54E;" d="M499.167,71.203l-58.371-58.372c-17.109-17.108-44.947-17.108-62.056,0l-33.341,33.341
	c-5.712,5.712-5.712,14.973,0,20.685l99.742,99.743c2.856,2.856,6.6,4.285,10.342,4.285s7.487-1.428,10.342-4.285l33.341-33.341
	C516.276,116.15,516.276,88.312,499.167,71.203z"/>
<path style="fill:#00429D;" d="M478.387,158.477L353.522,33.611c-17.108-17.109-44.947-17.109-62.056,0l-25.123,25.124
	c-8.289,8.288-12.853,19.307-12.853,31.028s4.565,22.74,12.853,31.028l124.866,124.866c8.289,8.288,19.307,12.853,31.028,12.853
	c11.721,0,22.74-4.565,31.027-12.853l25.124-25.123l0,0C495.496,203.424,495.496,175.586,478.387,158.477z"/>
<path style="fill:#0051BF;" d="M120.791,266.342c-8.288-8.288-19.307-12.853-31.028-12.853s-22.74,4.565-31.027,12.853
	l-25.124,25.124c-17.109,17.108-17.109,44.947,0,62.056l124.866,124.866c8.554,8.555,19.791,12.832,31.028,12.832
	c11.237,0,22.474-4.277,31.028-12.832l0,0l25.123-25.124c8.288-8.289,12.853-19.307,12.853-31.028
	c0-11.721-4.565-22.74-12.853-31.028L120.791,266.342z"/>
<g>
</g>
<g>
</g>
<g>
</g>
<g>
</g>
<g>
</g>
<g>
</g>
<g>
</g>
<g>
</g>
<g>
</g>
<g>
</g>
<g>
</g>
<g>
</g>
<g>
</g>
<g>
</g>
<g>
</g>
</svg>
